<svg width="488" height="488" viewBox="0 0 488 488" fill="none" xmlns="http://www.w3.org/2000/svg">
<path d="M343.611 260.836L239.012 239.92L167.416 268.947L291.992 293.853L343.611 260.836Z" fill="#C1C4D3"/>
<path d="M343.611 260.836L239.012 239.92L272.173 207.111L379.791 228.624L343.611 260.836Z" fill="#DAE0EE"/>
<path d="M291.991 414.298L343.611 374.816V260.836L291.991 293.853V414.298Z" fill="#CBD2E2"/>
<path d="M239.012 239.92V365.3L167.416 387.843V268.947L239.012 239.92Z" fill="#B3B9C7"/>
<path d="M343.611 260.836L374.996 282.073L328.451 321.425L291.991 293.853L343.611 260.836Z" fill="#EDF1FA"/>
<path d="M291.991 293.853L343.611 260.836L345.54 260.628L295.511 293.518L291.991 293.853Z" fill="white"/>
<path d="M343.611 260.836L239.012 239.92L239.351 238.551L343.936 259.747L343.611 260.836Z" fill="white"/>
<path d="M204.184 218.159L239.012 239.92L167.416 268.947L128.309 233.974L204.184 218.159Z" fill="#DAE0EC"/>
<path d="M239.012 239.92L238.239 239.098L166.589 267.863L167.416 268.947L239.012 239.92Z" fill="white"/>
<path d="M291.992 414.298L167.416 387.843V268.947L291.992 293.853V414.298Z" fill="#EBEDF9"/>
<path d="M243.616 339.287L122.019 311.832L167.416 268.947L291.992 293.853L243.616 339.287Z" fill="#F0F4FD"/>
<path d="M290.56 295.199L166.246 270.049L167.416 268.947L291.992 293.853L290.56 295.199Z" fill="white"/>
<path d="M137.007 202.551H133.767V199.312C133.767 198.729 133.293 198.254 132.71 198.254H130.066C129.483 198.254 129.009 198.729 129.009 199.312V202.551H125.769C125.186 202.551 124.712 203.026 124.712 203.609V206.252C124.712 206.835 125.186 207.309 125.769 207.309H129.009V210.549C129.009 211.132 129.483 211.607 130.066 211.607H132.71C133.293 211.607 133.767 211.132 133.767 210.549V207.309H137.007C137.59 207.309 138.064 206.835 138.064 206.252V203.609C138.064 203.026 137.59 202.551 137.007 202.551Z" fill="#E16F3D"/>
<path d="M149.509 343.498H146.784V340.773C146.784 339.987 146.147 339.345 145.356 339.345H143.621C142.835 339.345 142.194 339.982 142.194 340.773V343.498H139.469C138.683 343.498 138.041 344.135 138.041 344.926V346.661C138.041 347.447 138.678 348.089 139.469 348.089H142.194V350.813C142.194 351.604 142.831 352.241 143.621 352.241H145.356C146.147 352.241 146.784 351.604 146.784 350.813V348.089H149.509C150.3 348.089 150.937 347.451 150.937 346.661V344.926C150.937 344.139 150.3 343.498 149.509 343.498Z" fill="#E16F3D"/>
<path d="M381.522 342.273L378.417 340.597L380.094 337.492C380.365 336.986 380.18 336.358 379.674 336.083L377.057 334.673C376.551 334.402 375.923 334.587 375.648 335.093L373.971 338.197L370.867 336.521C370.361 336.25 369.733 336.435 369.457 336.941L368.047 339.557C367.776 340.064 367.962 340.692 368.468 340.967L371.572 342.644L369.896 345.748C369.624 346.254 369.81 346.882 370.316 347.158L372.932 348.567C373.438 348.838 374.066 348.653 374.342 348.147L376.018 345.043L379.122 346.719C379.628 346.99 380.256 346.805 380.532 346.299L381.942 343.683C382.213 343.177 382.028 342.544 381.522 342.273Z" fill="#E16F3D"/>
<path d="M286.425 87.1349C283.411 91.4817 277.157 90.1714 276.394 89.9997C272.639 89.1502 267.759 85.9195 267.976 81.4913C268.166 77.6325 272.115 75.1157 274.781 74.2391C275.133 74.1216 281.445 72.1606 285.349 76.5661C287.776 79.3043 288.698 83.8545 286.425 87.1349Z" fill="#EF8348" fill-opacity="0.2"/>
<path d="M250.142 103.515C255.41 104.012 258.438 98.3818 258.795 97.6904C260.561 94.2744 261.239 88.4591 257.71 85.7706C254.638 83.43 250.169 84.8307 247.779 86.3038C247.462 86.4981 241.895 90.0632 242.754 95.8875C243.283 99.5024 246.17 103.14 250.142 103.515Z" fill="#EF8348" fill-opacity="0.2"/>
<path d="M271.379 91.2512C270.972 92.5977 270.136 95.3495 267.976 96.086C263.982 97.4551 256.956 91.4319 256.513 84.8891C256.341 82.3813 257.028 78.1113 260.078 76.6925C262.744 75.4499 265.699 77.0856 266.368 77.4561C270.873 79.9549 272.906 86.2356 271.379 91.2512Z" fill="#E16F3D"/>
<path d="M271.021 101.644C271.433 102.43 271.83 103.207 272.219 103.985" stroke="#EF8348" stroke-opacity="0.7" stroke-width="4.6579" stroke-linecap="round" stroke-linejoin="round"/>
<path d="M274.483 108.661C280.361 121.295 283.782 132.618 285.851 141.335C289.814 158.017 290.144 170.646 290.37 181.712C290.7 197.983 289.019 203.451 287.144 207.504C286.019 209.935 280.904 220.996 269.779 225.921C251.705 233.928 224.205 222.889 220.961 206.094C218.828 195.055 226.943 180.311 237.128 178.897C245.935 177.677 254.145 186.714 256.151 188.924C256.151 188.924 260.968 194.224 263.399 201.336C267.822 214.268 256.165 243.218 231.765 275.381" stroke="#EF8348" stroke-opacity="0.7" stroke-width="4.6579" stroke-linecap="round" stroke-linejoin="round" stroke-dasharray="11.49 11.49"/>
<path d="M230.188 277.433C229.655 278.124 229.117 278.815 228.57 279.507" stroke="#EF8348" stroke-opacity="0.7" stroke-width="4.6579" stroke-linecap="round" stroke-linejoin="round"/>
<path d="M347.931 215.145C353.661 215.145 358.306 210.5 358.306 204.77C358.306 199.04 353.661 194.396 347.931 194.396C342.201 194.396 337.557 199.04 337.557 204.77C337.557 210.5 342.201 215.145 347.931 215.145Z" fill="#EF8348" fill-opacity="0.3"/>
<path d="M112.123 273.077C115.542 273.077 118.313 270.305 118.313 266.886C118.313 263.467 115.542 260.696 112.123 260.696C108.704 260.696 105.933 263.467 105.933 266.886C105.933 270.305 108.704 273.077 112.123 273.077Z" fill="#EF8348" fill-opacity="0.3"/>
<path d="M128.309 382.858C131.727 382.858 134.499 380.087 134.499 376.668C134.499 373.249 131.727 370.478 128.309 370.478C124.89 370.478 122.118 373.249 122.118 376.668C122.118 380.087 124.89 382.858 128.309 382.858Z" fill="#EF8348" fill-opacity="0.3"/>
</svg>
