<svg width="80" height="40" viewBox="0 0 80 40" fill="none" xmlns="http://www.w3.org/2000/svg">
<path d="M8 40L0 32H8V40Z" fill="#D56528"/>
<path d="M0 8C0 3.58172 3.58172 0 8 0H72C76.4183 0 80 3.58172 80 8V24C80 28.4183 76.4183 32 72 32H0V8Z" fill="#E16F3D"/>
<path d="M26.9399 17.712C26.1799 18.168 25.7199 18.48 25.5599 18.648C25.2399 18.96 25.0799 19.348 25.0799 19.812C25.0799 20.324 25.2559 20.736 25.6079 21.048C25.9599 21.368 26.4159 21.528 26.9759 21.528C27.8559 21.52 28.5919 21.308 29.1839 20.892V21.864C28.4959 22.288 27.7439 22.5 26.9279 22.5C26.0399 22.5 25.3279 22.208 24.7919 21.624C24.3279 21.128 24.0959 20.516 24.0959 19.788C24.0959 19.244 24.2399 18.78 24.5279 18.396C24.8159 18.02 25.3239 17.624 26.0519 17.208C25.3959 16.728 24.7239 15.976 24.0359 14.952V14.424C24.4279 13.864 24.8879 13.428 25.4159 13.116C25.9439 12.796 26.4799 12.636 27.0239 12.636C27.5599 12.636 28.0959 12.8 28.6319 13.128C29.1679 13.448 29.6279 13.888 30.0119 14.448V14.952C29.6039 15.568 28.9279 16.252 27.9839 17.004C28.1599 17.02 28.2999 17.028 28.4039 17.028H31.5719L31.5839 18H28.3199C27.8479 18 27.3879 17.904 26.9399 17.712ZM24.9959 14.7C25.7159 15.684 26.3719 16.336 26.9639 16.656C27.7399 16.128 28.4359 15.468 29.0519 14.676C28.4599 13.956 27.7839 13.592 27.0239 13.584C26.2559 13.584 25.5799 13.956 24.9959 14.7ZM31.8707 11.256L32.1467 10.74H32.4707C32.3907 10.596 32.3507 10.444 32.3507 10.284C32.3507 10.052 32.4387 9.852 32.6147 9.684C32.7907 9.508 32.9987 9.42 33.2387 9.42C33.4387 9.42 33.6307 9.484 33.8147 9.612V10.14C33.6387 10.004 33.4707 9.936 33.3107 9.936C33.0147 9.936 32.8667 10.068 32.8667 10.332C32.8667 10.468 32.9227 10.604 33.0347 10.74H34.1267L33.8507 11.256H31.8707ZM30.8627 18V17.028H31.6547C32.4387 17.028 32.8307 16.628 32.8307 15.828V13.344L33.8627 12.792V15.864C33.8627 16.544 33.6587 17.08 33.2507 17.472C32.8747 17.824 32.3827 18 31.7747 18H30.8627ZM37.9532 18C37.2572 18 36.7212 17.776 36.3452 17.328C36.0252 16.944 35.8652 16.456 35.8652 15.864V10.812L36.8972 10.26V15.828C36.8972 16.628 37.2892 17.028 38.0732 17.028H38.8652V18H37.9532ZM44.74 10.236C44.388 10.236 44.212 10.056 44.212 9.696C44.212 9.344 44.388 9.168 44.74 9.168C45.092 9.168 45.268 9.344 45.268 9.696C45.268 10.056 45.092 10.236 44.74 10.236ZM43.984 11.664C43.592 11.664 43.396 11.464 43.396 11.064C43.396 10.672 43.592 10.476 43.984 10.476C44.368 10.476 44.56 10.672 44.56 11.064C44.56 11.464 44.368 11.664 43.984 11.664ZM45.508 11.664C45.116 11.664 44.92 11.464 44.92 11.064C44.92 10.672 45.116 10.476 45.508 10.476C45.892 10.476 46.084 10.672 46.084 11.064C46.084 11.464 45.892 11.664 45.508 11.664ZM38.14 18V17.028H39.22C39.996 17.028 40.384 16.628 40.384 15.828V14.148L41.416 13.596V15.828C41.416 16.628 41.808 17.028 42.592 17.028H43.144C43.928 17.028 44.32 16.628 44.32 15.828V13.74L45.352 13.2V15.828C45.352 16.628 45.74 17.028 46.516 17.028H47.08C47.864 17.028 48.256 16.628 48.256 15.828V13.344L49.288 12.792V15.72C49.288 16.592 49.704 17.028 50.536 17.028H51.532V18H50.452C49.732 18 49.184 17.756 48.808 17.268C48.472 17.748 47.948 17.992 47.236 18H46.408C45.704 18 45.18 17.764 44.836 17.292C44.492 17.756 43.98 17.992 43.3 18H42.472C41.784 18 41.26 17.764 40.9 17.292C40.556 17.764 40.032 18 39.328 18H38.14ZM50.808 18V17.028H51.444C52.276 17.028 52.692 16.592 52.692 15.72V10.812L53.736 10.26V15.732C53.736 16.444 53.524 17.008 53.1 17.424C52.7 17.808 52.176 18 51.528 18H50.808ZM55.8925 18V10.812L56.9245 10.26V18H55.8925Z" fill="white"/>
</svg>
