<svg width="40" height="40" viewBox="0 0 40 40" fill="none" xmlns="http://www.w3.org/2000/svg">
<g clip-path="url(#clip0_57_48873)">
<path d="M9.12461 7.51096L7.95508 6.35041H7.98445V3.29416C7.98445 1.83861 6.80453 0.658691 5.34898 0.658691C3.89344 0.658691 2.71352 1.83861 2.71352 3.29416V6.35041H2.74289L1.57336 7.51096C1.0748 8.00564 0.679096 8.59412 0.409059 9.24247C0.139023 9.89081 -1.67201e-06 10.5862 0 11.2885H10.6979C10.6979 10.5862 10.5588 9.89084 10.2888 9.2425C10.0188 8.59415 9.62313 8.00567 9.12461 7.51096ZM38.4267 7.51096L37.2572 6.35041H37.2866V3.29416C37.2866 1.83861 36.1066 0.658691 34.6511 0.658691C33.1955 0.658691 32.0156 1.83861 32.0156 3.29416V6.35041H32.045L30.8755 7.51096C30.3769 8.00566 29.9813 8.59414 29.7112 9.24249C29.4412 9.89083 29.3022 10.5862 29.3022 11.2885H40C40 10.5862 39.861 9.89083 39.591 9.24249C39.3209 8.59414 38.9253 8.00566 38.4267 7.51096ZM23.7756 7.51096L22.6061 6.35041H22.6355V3.29416C22.6355 1.83861 21.4555 0.658691 20 0.658691C18.5445 0.658691 17.3645 1.83861 17.3645 3.29416V6.35041H17.3939L16.2244 7.51096C15.7258 8.00566 15.3302 8.59414 15.0601 9.24249C14.7901 9.89083 14.6511 10.5862 14.6511 11.2885H25.349C25.349 10.5862 25.2099 9.89083 24.9399 9.24249C24.6698 8.59415 24.2742 8.00566 23.7756 7.51096ZM5.27102 20.5128V28.7988H15.013C14.0771 27.6742 13.5132 26.2298 13.5132 24.6558C13.5132 23.0818 14.0771 21.6373 15.013 20.5128H5.27102ZM10.542 25.8277H8.19828V23.4839H10.542V25.8277Z" fill="white"/>
<path d="M20 28.7988C22.2881 28.7988 24.143 26.9439 24.143 24.6557C24.143 22.3676 22.2881 20.5127 20 20.5127C17.7118 20.5127 15.8569 22.3676 15.8569 24.6557C15.8569 26.9439 17.7118 28.7988 20 28.7988Z" fill="white"/>
<path d="M0 34.0698H40V15.2417H0V34.0698ZM2.92727 18.169H37.0727V31.1426H2.92727V18.169ZM0 36.4136H40V39.3408H0V36.4136Z" fill="white"/>
<path d="M26.4868 24.6557C26.4868 26.2297 25.9229 27.6743 24.9871 28.7988H34.729V20.5127H24.9871C25.9229 21.6372 26.4868 23.0818 26.4868 24.6557ZM29.458 23.4839H31.8017V25.8276H29.458V23.4839Z" fill="white"/>
</g>
<defs>
<clipPath id="clip0_57_48873">
<rect width="40" height="40" fill="white"/>
</clipPath>
</defs>
</svg>
