<svg width="40" height="40" viewBox="0 0 40 40" fill="none" xmlns="http://www.w3.org/2000/svg">
<g clip-path="url(#clip0_57_48866)">
<path d="M18.838 13.9047L11.1792 11.2236C11.1792 13.6716 11.1585 13.6542 11.2354 13.8852C11.2887 14.0521 11.3788 14.2048 11.4991 14.3322C11.6193 14.4597 11.7666 14.5584 11.9301 14.6213C20.2751 17.8313 19.6884 17.6415 20 17.6415C20.3089 17.6415 19.7149 17.8348 28.0691 14.6213C28.2904 14.5365 28.4808 14.3865 28.615 14.1912C28.7493 13.9958 28.821 13.7643 28.8208 13.5273V11.3518L21.112 13.9219C20.373 14.1684 19.5731 14.1624 18.838 13.9047Z" fill="white"/>
<path d="M7.55493 7.42353C7.83702 7.61045 6.89344 7.24029 19.6124 11.6917C19.8574 11.7781 20.1241 11.7803 20.3704 11.698L31.1839 8.09322V14.7041C31.1839 15.0277 31.3152 15.3215 31.5277 15.5332C32.2622 16.2678 33.5282 15.7449 33.5282 14.7041C33.5282 6.71188 33.5261 6.53114 33.5259 6.53215C33.5611 6.03227 33.2461 5.52832 32.7264 5.35508C20.2128 1.18418 20.2778 1.17676 20 1.17676C19.7118 1.17676 19.7955 1.17918 7.84562 5.36055C6.95416 5.6725 6.77725 6.86739 7.55493 7.42353ZM7.0509 25.8747H9.41396V28.237H7.0509V25.8747Z" fill="white"/>
<path d="M38.8279 6.46729H35.8725V14.7044C35.8725 16.6439 34.2948 18.2208 32.356 18.2208C31.1081 18.2208 30.0102 17.5675 29.3858 16.5853C29.0629 16.7684 29.5992 16.545 21.2628 19.7516C20.45 20.0644 19.55 20.0644 18.7372 19.7516L11.0885 16.8096C10.4251 16.5545 9.8546 16.1043 9.45226 15.5184C9.04992 14.9324 8.83466 14.2383 8.83488 13.5275V10.4041L7.07119 9.78603C5.66226 9.29373 4.71595 7.95982 4.71595 6.46729H1.17215C0.525123 6.46729 0 6.99241 0 7.63943V32.9446C0 33.5916 0.525123 34.1167 1.17215 34.1167H11.7674V36.479H8.2324C7.58537 36.479 7.06025 37.0041 7.06025 37.6512C7.06025 38.299 7.58537 38.8233 8.2324 38.8233H31.7676C32.4146 38.8233 32.9398 38.299 32.9398 37.6512C32.9398 37.0041 32.4146 36.479 31.7676 36.479H28.2326V34.1167H38.8279C39.4749 34.1167 40 33.5916 40 32.9446V7.63943C40 6.99241 39.4749 6.46729 38.8279 6.46729ZM11.7582 29.4094C11.7582 30.0572 11.2331 30.5815 10.5861 30.5815H5.87872C5.2317 30.5815 4.70657 30.0572 4.70657 29.4094V24.7028C4.70657 24.055 5.2317 23.5307 5.87872 23.5307H10.5861C11.2331 23.5307 11.7582 24.055 11.7582 24.7028V29.4094ZM34.1213 30.5815H15.2926C14.6456 30.5815 14.1205 30.0572 14.1205 29.4094C14.1205 28.7624 14.6456 28.2372 15.2926 28.2372H34.1213C34.7683 28.2372 35.2934 28.7624 35.2934 29.4094C35.2934 30.0572 34.7683 30.5815 34.1213 30.5815ZM34.1213 25.875H15.2926C14.6456 25.875 14.1205 25.3498 14.1205 24.7028C14.1205 24.055 14.6456 23.5307 15.2926 23.5307H34.1213C34.7683 23.5307 35.2934 24.055 35.2934 24.7028C35.2934 25.3498 34.7683 25.875 34.1213 25.875Z" fill="white"/>
</g>
<defs>
<clipPath id="clip0_57_48866">
<rect width="40" height="40" fill="white"/>
</clipPath>
</defs>
</svg>
