<svg width="24" height="24" viewBox="0 0 24 24" fill="none" xmlns="http://www.w3.org/2000/svg">
<g id="svgexport-20 2">
<g id="Group">
<path id="Vector" d="M4.69998 17.7002C3.69998 16.6002 3.09998 15.4002 3.09998 13.4002C3.09998 9.9002 5.59998 6.8002 9.09998 5.2002L9.99998 6.5002C6.69998 8.3002 5.99998 10.6002 5.79998 12.1002C6.29998 11.8002 6.99998 11.7002 7.69998 11.8002C9.49998 12.0002 10.9 13.4002 10.9 15.3002C10.9 16.2002 10.5 17.1002 9.89998 17.8002C9.19998 18.5002 8.39998 18.8002 7.39998 18.8002C6.29998 18.8002 5.29998 18.3002 4.69998 17.7002ZM14.7 17.7002C13.7 16.6002 13.1 15.4002 13.1 13.4002C13.1 9.9002 15.6 6.8002 19.1 5.2002L20 6.5002C16.7 8.3002 16 10.6002 15.8 12.1002C16.3 11.8002 17 11.7002 17.7 11.8002C19.5 12.0002 20.9 13.4002 20.9 15.3002C20.9 16.2002 20.5 17.1002 19.9 17.8002C19.3 18.5002 18.4 18.8002 17.4 18.8002C16.3 18.8002 15.3 18.3002 14.7 17.7002Z" fill="#9A314F"/>
</g>
</g>
</svg>
