<svg width="24" height="24" viewBox="0 0 24 24" fill="none" xmlns="http://www.w3.org/2000/svg">
<g id="svgexport-20 1">
<g id="Group">
<path id="Vector" d="M19.3 17.7002C20.3 16.6002 20.9 15.4002 20.9 13.4002C20.9 9.9002 18.4 6.8002 14.9 5.2002L14 6.5002C17.3 8.3002 18 10.6002 18.2 12.1002C17.7 11.8002 17 11.7002 16.3 11.8002C14.5 12.0002 13.1 13.4002 13.1 15.3002C13.1 16.2002 13.5 17.1002 14.1 17.8002C14.8 18.5002 15.6 18.8002 16.6 18.8002C17.7 18.8002 18.7 18.3002 19.3 17.7002ZM9.30002 17.7002C10.3 16.6002 10.9 15.4002 10.9 13.4002C10.9 9.9002 8.40002 6.8002 4.90002 5.2002L4.00002 6.5002C7.30002 8.3002 8.00002 10.6002 8.20002 12.1002C7.70002 11.8002 7.00002 11.7002 6.30002 11.8002C4.50002 12.0002 3.10003 13.4002 3.10003 15.3002C3.10003 16.2002 3.50002 17.1002 4.10003 17.8002C4.70003 18.5002 5.60003 18.8002 6.60003 18.8002C7.70003 18.8002 8.70002 18.3002 9.30002 17.7002Z" fill="#9A314F"/>
</g>
</g>
</svg>
